<svg width="33" height="33" viewBox="0 0 33 33" fill="none" xmlns="http://www.w3.org/2000/svg">
<path d="M16.4997 33L15.1029 31.1551C14.0748 29.8109 5.07812 17.8004 5.07812 11.8171C5.07812 4.63908 9.55891 0 16.4997 0C23.4406 0 27.9213 4.63908 27.9213 11.8171C27.9213 17.7916 18.9247 29.8021 17.9053 31.1551L16.4997 33Z" fill="#C9B171"/>
<path d="M16.4991 30.4758L15.0977 28.6247C14.2144 27.4697 6.46094 17.1778 6.46094 11.9097C6.46094 5.60566 10.4013 1.53223 16.4996 1.53223C22.5979 1.53223 26.5383 5.60566 26.5383 11.9097C26.5383 16.9133 19.3505 26.7107 17.9094 28.6242L16.4991 30.4758ZM16.4996 2.04785C10.7143 2.04785 6.97656 5.91916 6.97656 11.9097C6.97656 17.0959 15.16 27.8569 15.5081 28.3128L16.5002 29.623L17.4984 28.3133C18.921 26.424 26.0227 16.7494 26.0227 11.9102C26.0227 5.91916 22.2844 2.04785 16.4996 2.04785Z" fill="white"/>
<path d="M18.797 13.1057C18.6042 13.0281 18.4139 13.0302 18.3059 13.2361C18.1995 13.4388 18.2829 13.607 18.4768 13.7055C18.6298 13.7835 18.7457 13.8757 18.7289 14.0606C18.7121 14.2497 18.5926 14.3582 18.4165 14.4116C18.2011 14.4661 17.982 14.4346 17.765 14.4352C17.405 14.4367 17.0449 14.4367 16.6848 14.4367C16.3248 14.4367 15.5097 14.4367 15.1497 14.4352C14.9327 14.4341 14.7136 14.4661 14.4982 14.4116C14.3226 14.3582 14.2031 14.2492 14.1858 14.0606C14.169 13.8762 14.2854 13.7835 14.4379 13.7055C14.6313 13.607 14.7152 13.4388 14.6088 13.2361C14.5008 13.0302 14.3106 13.0281 14.1177 13.1057C13.7141 13.2675 13.4568 13.7076 13.506 14.1397C13.571 14.7086 13.9835 15.0674 14.6098 15.0711C15.1497 15.0742 16.145 15.0747 16.6848 15.0747C17.2247 15.0747 17.765 15.0742 18.3049 15.0711C18.9312 15.0674 19.3437 14.7086 19.4087 14.1397C19.458 13.7076 19.2006 13.2675 18.797 13.1057Z" fill="white"/>
<path d="M16.8094 11.7374C16.8094 12.354 16.8068 12.9705 16.8105 13.5876C16.812 13.8369 16.7471 14.037 16.4562 14.035C16.1684 14.0329 16.0998 13.8338 16.0998 13.585C16.1013 12.3414 16.1029 11.0973 16.0977 9.85375C16.0966 9.59497 16.1894 9.40587 16.4593 9.4043C16.736 9.40325 16.8147 9.59917 16.811 9.85637C16.8026 10.4834 16.8084 11.1104 16.8084 11.7374H16.8094Z" fill="white"/>
<path d="M16.4381 15.3961C17.056 15.3961 17.674 15.3982 18.2919 15.3946C18.5204 15.393 18.695 15.4574 18.6971 15.7178C18.6992 15.9718 18.5383 16.0541 18.3034 16.0535C17.0571 16.0504 15.8107 16.0509 14.5649 16.0525C14.3327 16.0525 14.1692 15.9729 14.176 15.7136C14.1833 15.4527 14.3573 15.3935 14.5848 15.3951C15.2027 15.3998 15.8207 15.3967 16.4386 15.3967L16.4381 15.3961Z" fill="white"/>
<path d="M16.4562 16.3434C17.1486 16.3434 17.8405 16.3455 18.5328 16.3418C18.7886 16.3403 18.9841 16.4047 18.9867 16.665C18.9888 16.9191 18.8085 17.0013 18.5454 17.0008C17.1497 16.9977 15.7534 16.9982 14.3577 16.9998C14.0977 16.9998 13.9143 16.9201 13.9221 16.6608C13.9305 16.4 14.1255 16.3408 14.3802 16.3423C15.072 16.3471 15.7644 16.3439 16.4568 16.3439L16.4562 16.3434Z" fill="white"/>
<path d="M18.0032 12.3951C18.0032 12.7912 18.0032 13.1877 18.0032 13.5837C18.0032 13.8304 17.9267 14.0274 17.6427 14.0326C17.3607 14.0384 17.2632 13.8482 17.2621 13.6005C17.2585 12.777 17.2595 11.953 17.2621 11.1296C17.2627 10.8876 17.3759 10.7157 17.628 10.711C17.9016 10.7063 18.0064 10.8855 18.0043 11.1437C18.0017 11.5607 18.0038 11.9776 18.0038 12.3946L18.0032 12.3951Z" fill="white"/>
<path d="M15.6363 12.9035C15.6363 13.1539 15.6384 13.4048 15.6363 13.6552C15.6342 13.8925 15.5152 14.0366 15.2746 14.0339C15.0341 14.0313 14.9209 13.8846 14.9209 13.6474C14.9209 13.146 14.9188 12.6447 14.9209 12.1434C14.9219 11.9088 15.0362 11.7605 15.2814 11.7658C15.5215 11.771 15.6368 11.913 15.6358 12.1513C15.6347 12.4017 15.6358 12.6526 15.6358 12.903L15.6363 12.9035Z" fill="white"/>
<path d="M17.9957 9.88022C17.9957 9.97347 18.0057 10.0683 17.9936 10.1599C17.9679 10.3527 17.8448 10.4502 17.6545 10.4612C17.4622 10.4722 17.3264 10.3784 17.2839 10.1961C17.2342 9.98342 17.2399 9.76079 17.2782 9.54655C17.3138 9.34592 17.4606 9.24901 17.6634 9.25844C17.8568 9.26734 17.9685 9.38311 17.9952 9.56907C18.0099 9.67069 17.9978 9.77598 17.9978 9.88022C17.9968 9.88022 17.9962 9.88022 17.9952 9.88022H17.9957Z" fill="white"/>
<path d="M14.9246 10.9276C14.9246 10.8338 14.9125 10.7385 14.9272 10.6473C14.9571 10.4577 15.0792 10.3503 15.2694 10.3477C15.4586 10.3451 15.5996 10.4451 15.6232 10.6337C15.6489 10.8385 15.6541 11.0502 15.6321 11.255C15.6112 11.4504 15.4812 11.5782 15.2705 11.5693C15.0488 11.5598 14.9314 11.4294 14.9204 11.2089C14.9157 11.1156 14.9193 11.0219 14.9193 10.9281C14.9209 10.9281 14.923 10.9281 14.9246 10.9281V10.9276Z" fill="white"/>
<path d="M16.1031 8.59309C16.1031 8.49933 16.0942 8.40452 16.1047 8.3118C16.1283 8.10174 16.2593 7.99593 16.4643 8.00012C16.6692 8.00483 16.7981 8.1117 16.8065 8.32751C16.8128 8.48361 16.8034 8.64024 16.8086 8.79686C16.817 9.0504 16.7054 9.20283 16.4464 9.20126C16.2022 9.19969 16.0958 9.04883 16.1 8.81258C16.101 8.73977 16.1 8.66643 16.1 8.59362C16.101 8.59362 16.1021 8.59362 16.1026 8.59362L16.1031 8.59309Z" fill="white"/>
</svg>
