<svg width="33" height="33" viewBox="0 0 33 33" fill="none" xmlns="http://www.w3.org/2000/svg">
<path d="M16.4997 33L15.1029 31.1551C14.0748 29.8109 5.07812 17.8004 5.07812 11.8171C5.07812 4.63908 9.55891 0 16.4997 0C23.4406 0 27.9213 4.63908 27.9213 11.8171C27.9213 17.7916 18.9247 29.8021 17.9053 31.1551L16.4997 33Z" fill="#C9B171"/>
<path d="M16.4991 30.4758L15.0977 28.6247C14.2144 27.4697 6.46094 17.1778 6.46094 11.9097C6.46094 5.60566 10.4013 1.53223 16.4996 1.53223C22.5979 1.53223 26.5383 5.60566 26.5383 11.9097C26.5383 16.9133 19.3505 26.7107 17.9094 28.6242L16.4991 30.4758ZM16.4996 2.04785C10.7143 2.04785 6.97656 5.91916 6.97656 11.9097C6.97656 17.0959 15.16 27.8569 15.5081 28.3128L16.5002 29.623L17.4984 28.3133C18.921 26.424 26.0227 16.7494 26.0227 11.9102C26.0227 5.91916 22.2844 2.04785 16.4996 2.04785Z" fill="white"/>
<path d="M20.9615 15.6897C20.9396 15.6553 20.9239 15.6167 20.9036 15.5817C20.8734 15.529 20.8416 15.4769 20.8113 15.4242C20.7467 15.3103 20.6863 15.1949 20.6242 15.0802C20.4963 14.8448 20.3555 14.6175 20.2323 14.3786C20.1079 14.1362 19.9854 13.8925 19.8626 13.6495C19.7346 13.3971 19.5893 13.154 19.4507 12.9065C19.3083 12.6528 19.1833 12.3892 19.0482 12.131C18.917 11.8799 18.7852 11.6282 18.6563 11.3755C18.5232 11.1144 18.3875 10.8543 18.2519 10.5949C18.113 10.3319 17.9699 10.0711 17.8368 9.80428C17.7063 9.54193 17.5712 9.28119 17.4381 9.02013C17.2886 8.72499 17.1279 8.43371 16.9572 8.15046C16.9083 8.06848 16.8231 8.0209 16.7334 8.01318C16.7067 8.00514 16.6794 8 16.6514 8C16.6267 8 16.6019 8.00322 16.5778 8.00965C16.5038 8.03022 16.454 8.0762 16.4112 8.1376C16.319 8.27006 16.2309 8.40445 16.1457 8.54206C16.0759 8.65458 16.0119 8.77129 15.9396 8.88188C15.792 9.10726 15.6255 9.31945 15.4924 9.55447C15.3535 9.79753 15.2079 10.0367 15.0654 10.2779C14.9265 10.5132 14.8031 10.7569 14.6674 10.9945C14.5317 11.2337 14.3861 11.4674 14.2459 11.704C14.1064 11.9394 13.9816 12.1824 13.844 12.4194C13.709 12.6531 13.5753 12.8878 13.4364 13.119C13.2952 13.3534 13.165 13.5932 13.0281 13.8305C12.8628 14.1176 12.7053 14.4089 12.5252 14.687C12.4436 14.8139 12.3606 14.9387 12.2815 15.067C12.2018 15.1956 12.1214 15.3251 12.0365 15.4505C11.9845 15.5277 11.9925 15.6245 12.0327 15.7048C12.0263 15.728 12.0189 15.7508 12.0189 15.7752C12.0189 15.8444 12.0465 15.9116 12.0954 15.9604C12.1475 16.0125 12.2086 16.0302 12.2806 16.0369C12.5532 16.0614 12.8274 16.0575 13.1014 16.0627C13.3801 16.0672 13.6589 16.064 13.9379 16.0678C14.2009 16.071 14.4642 16.0746 14.7279 16.0765C14.9986 16.0778 15.2693 16.0897 15.5397 16.0865C15.8104 16.0826 16.0811 16.072 16.3514 16.0752C16.4952 16.0765 16.6392 16.0797 16.7823 16.089C16.9167 16.0977 17.0504 16.1135 17.1854 16.1205C17.4471 16.1337 17.7085 16.1299 17.9709 16.1331C18.2422 16.1363 18.5123 16.1418 18.7833 16.1569C19.0984 16.1739 19.4131 16.1983 19.7288 16.2096C19.8771 16.2154 20.0253 16.217 20.1741 16.2196C20.3098 16.2221 20.4448 16.2247 20.5799 16.2138C20.6538 16.2073 20.7181 16.1881 20.7721 16.134C20.7827 16.1234 20.7882 16.109 20.7966 16.0971C20.8175 16.091 20.8387 16.0877 20.8586 16.0758C20.9898 16 21.0425 15.8203 20.9615 15.6897ZM19.852 15.6675C19.5909 15.6611 19.3289 15.6386 19.0672 15.6261C18.9373 15.6193 18.8065 15.6071 18.6759 15.6029C18.546 15.5984 18.4158 15.5962 18.2853 15.5923C18.0139 15.5849 17.7426 15.5823 17.4709 15.5804C17.1983 15.5785 16.9273 15.5489 16.6553 15.5402C16.3878 15.5309 16.1184 15.5389 15.8509 15.5489C15.5769 15.5595 15.304 15.5576 15.0301 15.5557C14.7581 15.5531 14.487 15.5537 14.2151 15.5589C13.8936 15.564 13.5727 15.5701 13.2518 15.5627C13.0425 15.5579 12.8326 15.5492 12.6233 15.537C12.7136 15.392 12.8033 15.2464 12.8959 15.1023C13.0454 14.8699 13.1792 14.63 13.3097 14.387C13.5672 13.9092 13.8473 13.4437 14.1199 12.9746C14.261 12.7316 14.408 12.4924 14.5462 12.2467C14.6755 12.0182 14.8195 11.7979 14.9555 11.5735C15.0979 11.3388 15.2281 11.098 15.3638 10.8595C15.502 10.6158 15.6477 10.3759 15.7914 10.1354C15.8737 9.99782 15.9528 9.85861 16.0319 9.71908C16.1135 9.57472 16.2138 9.44098 16.308 9.30402C16.3965 9.17542 16.4788 9.04231 16.5624 8.91018C16.5932 8.86163 16.6273 8.81501 16.6588 8.76679C16.7585 8.93622 16.8604 9.10469 16.9552 9.27669C17.0922 9.52521 17.2121 9.78274 17.3346 10.0377C17.4584 10.2959 17.597 10.5463 17.7326 10.798C17.8715 11.0556 18.002 11.3179 18.1409 11.5761C18.4155 12.0879 18.6701 12.6104 18.9434 13.1232C19.0746 13.3694 19.218 13.6093 19.3485 13.8559C19.4784 14.1021 19.6067 14.3494 19.7327 14.5976C19.8591 14.8445 20.0028 15.0811 20.1372 15.3229C20.2008 15.4373 20.2603 15.5534 20.3217 15.6682C20.1651 15.6698 20.0089 15.6708 19.852 15.6675ZM16.8106 12.8518C16.8173 13.027 16.8311 13.2016 16.8318 13.3768C16.8324 13.5238 16.7086 13.6462 16.5624 13.6462C16.4109 13.6462 16.2994 13.5238 16.2929 13.3768C16.2862 13.199 16.2817 13.0216 16.2772 12.8438C16.2727 12.6631 16.2685 12.4795 16.2753 12.2988C16.282 12.1204 16.2929 11.9423 16.2978 11.7632C16.3029 11.5629 16.3023 11.3626 16.3042 11.1623C16.3061 11.0286 16.4154 10.916 16.5511 10.916C16.6829 10.916 16.7996 11.0279 16.7974 11.1623C16.79 11.5446 16.779 11.9265 16.7929 12.3088C16.7993 12.4898 16.8035 12.6711 16.8106 12.8518ZM16.8109 14.5349C16.8109 14.6799 16.6897 14.8011 16.5447 14.8011C16.3997 14.8011 16.2785 14.6799 16.2785 14.5349C16.2785 14.3899 16.3997 14.2687 16.5447 14.2687C16.6897 14.2687 16.8109 14.3899 16.8109 14.5349Z" fill="#EE6363" stroke="#EE6363" stroke-width="0.4"/>
</svg>
