<svg width="33" height="33" viewBox="0 0 33 33" fill="none" xmlns="http://www.w3.org/2000/svg">
<path d="M16.4216 33L15.0248 31.1551C13.9966 29.8109 5 17.8004 5 11.8171C5 4.63908 9.48078 0 16.4216 0C23.3624 0 27.8432 4.63908 27.8432 11.8171C27.8432 17.7916 18.8466 29.8021 17.8272 31.1551L16.4216 33Z" fill="#C9B171"/>
<path d="M16.4991 30.4758L15.0977 28.6247C14.2144 27.4697 6.46094 17.1778 6.46094 11.9097C6.46094 5.60566 10.4013 1.53223 16.4996 1.53223C22.5979 1.53223 26.5383 5.60566 26.5383 11.9097C26.5383 16.9133 19.3505 26.7107 17.9094 28.6242L16.4991 30.4758ZM16.4996 2.04785C10.7143 2.04785 6.97656 5.91916 6.97656 11.9097C6.97656 17.0959 15.16 27.8569 15.5081 28.3128L16.5002 29.623L17.4984 28.3133C18.921 26.424 26.0227 16.7494 26.0227 11.9102C26.0227 5.91916 22.2844 2.04785 16.4996 2.04785Z" fill="white"/>
<path d="M17.9436 8.01474C17.8702 7.94129 17.7706 7.90002 17.6667 7.9H17.6667H13.2917H13.2917L19.9853 10.0564M17.9436 8.01474L17.8729 8.08545L17.9436 8.01474L17.9436 8.01474ZM17.9436 8.01474L19.9853 10.0564M19.9853 10.0564L19.9173 10.1244L19.9853 10.0564L19.9853 10.0564ZM17.6661 10.7256H17.6657C17.4494 10.7248 17.2749 10.5488 17.2756 10.3326M17.6661 10.7256L17.3756 8.68333H17.2756M17.6661 10.7256H19.3167M17.6661 10.7256L19.3167 10.6256V10.7256M17.2756 10.3326C17.2756 10.3326 17.2756 10.3325 17.2756 10.3324L17.3756 10.3328H17.2756V10.3326ZM17.2756 10.3326V8.68333M17.2756 8.68333V8.58333H13.6833V8.68333M17.2756 8.68333H13.6833M13.6833 8.68333H13.5833V16.0667H13.6833M13.6833 8.68333V16.0667M13.6833 16.0667V16.1667H19.3167V16.0667M13.6833 16.0667H19.3167M19.3167 16.0667H19.4167V10.7256H19.3167M19.3167 16.0667V10.7256M18.0589 9.94224V9.23776L18.7634 9.94224H18.0589Z" fill="#4182D0" stroke="#4182D0" stroke-width="0.2"/>
<path d="M14.7362 11.2394C14.8062 11.1624 14.9038 11.1164 15.0077 11.1114L14.7362 11.2394ZM14.7362 11.2394C14.6663 11.3163 14.6298 11.4179 14.6348 11.5218M14.7362 11.2394L14.6348 11.5218M14.6348 11.5218C14.6398 11.6257 14.6858 11.7233 14.7628 11.7932M14.6348 11.5218L14.7628 11.7932M14.7628 11.7932C14.8391 11.8625 14.9397 11.899 15.0427 11.8948M14.7628 11.7932L15.0427 11.8948M15.0427 11.8948H17.9578C18.0093 11.8948 18.0602 11.8846 18.1077 11.8649C18.1553 11.8452 18.1985 11.8164 18.2348 11.78C18.2712 11.7436 18.3001 11.7005 18.3198 11.6529C18.3394 11.6054 18.3496 11.5545 18.3496 11.503C18.3496 11.4516 18.3394 11.4006 18.3198 11.3531C18.3001 11.3055 18.2712 11.2624 18.2348 11.226C18.1985 11.1896 18.1553 11.1608 18.1077 11.1411C18.0602 11.1214 18.0093 11.1113 17.9578 11.1113H15.0427C15.031 11.1108 15.0193 11.1108 15.0077 11.1114L15.0427 11.8948Z" fill="#4182D0" stroke="#4182D0" stroke-width="0.2"/>
<path d="M15.0417 12.858C14.9903 12.858 14.9394 12.8681 14.8918 12.8878C14.8443 12.9075 14.8011 12.9364 14.7647 12.9727C14.7284 13.0091 14.6995 13.0523 14.6798 13.0998C14.6601 13.1474 14.65 13.1983 14.65 13.2497C14.65 13.3012 14.6601 13.3521 14.6798 13.3997C14.6995 13.4472 14.7284 13.4904 14.7647 13.5267C14.8011 13.5631 14.8443 13.592 14.8918 13.6117C14.9394 13.6314 14.9903 13.6415 15.0417 13.6415H17.9591C18.0106 13.6415 18.0615 13.6314 18.109 13.6117C18.1566 13.592 18.1998 13.5631 18.2361 13.5267C18.2725 13.4904 18.3014 13.4472 18.321 13.3997C18.3407 13.3521 18.3509 13.3012 18.3509 13.2497C18.3509 13.1983 18.3407 13.1474 18.321 13.0998C18.3014 13.0523 18.2725 13.0091 18.2361 12.9727C18.1998 12.9364 18.1566 12.9075 18.109 12.8878C18.0615 12.8681 18.0106 12.858 17.9591 12.858H15.0417Z" fill="#4182D0" stroke="#4182D0" stroke-width="0.2"/>
<path d="M15.0417 14.6061C14.9378 14.6061 14.8382 14.6473 14.7647 14.7208C14.6913 14.7943 14.65 14.8939 14.65 14.9978C14.65 15.1017 14.6913 15.2013 14.7647 15.2748C14.8382 15.3483 14.9378 15.3895 15.0417 15.3895H17.9591C18.063 15.3895 18.1627 15.3483 18.2361 15.2748C18.3096 15.2013 18.3509 15.1017 18.3509 14.9978C18.3509 14.8939 18.3096 14.7943 18.2361 14.7208C18.1627 14.6473 18.063 14.6061 17.9591 14.6061H15.0417Z" fill="#4182D0" stroke="#4182D0" stroke-width="0.2"/>
</svg>
