<svg width="33" height="33" viewBox="0 0 33 33" fill="none" xmlns="http://www.w3.org/2000/svg">
<path d="M16.4997 33L15.1029 31.1551C14.0748 29.8109 5.07812 17.8004 5.07812 11.8171C5.07812 4.63908 9.55891 0 16.4997 0C23.4406 0 27.9213 4.63908 27.9213 11.8171C27.9213 17.7916 18.9247 29.8021 17.9053 31.1551L16.4997 33Z" fill="#C9B171"/>
<path d="M16.4991 30.4758L15.0977 28.6247C14.2144 27.4697 6.46094 17.1778 6.46094 11.9097C6.46094 5.60566 10.4013 1.53223 16.4996 1.53223C22.5979 1.53223 26.5383 5.60566 26.5383 11.9097C26.5383 16.9133 19.3505 26.7107 17.9094 28.6242L16.4991 30.4758ZM16.4996 2.04785C10.7143 2.04785 6.97656 5.91916 6.97656 11.9097C6.97656 17.0959 15.16 27.8569 15.5081 28.3128L16.5002 29.623L17.4984 28.3133C18.921 26.424 26.0227 16.7494 26.0227 11.9102C26.0227 5.91916 22.2844 2.04785 16.4996 2.04785Z" fill="white"/>
<mask id="path-3-outside-1_5325_6269" maskUnits="userSpaceOnUse" x="11" y="8" width="11" height="9" fill="black">
<rect fill="white" x="11" y="8" width="11" height="9"/>
<path d="M12.9047 15.1071C12.6125 15.1071 12.3882 15.0238 12.2317 14.8572C12.0772 14.6906 12 14.4518 12 14.1409V9.96287C12 9.65191 12.0772 9.41425 12.2317 9.24988C12.3882 9.08329 12.6125 9 12.9047 9H17.3249C17.6191 9 17.8435 9.08329 17.9979 9.24988C18.1523 9.41425 18.2296 9.65191 18.2296 9.96287V14.2941L17.6066 14.6073V10.0029C17.6066 9.88958 17.5795 9.80517 17.5252 9.74964C17.471 9.69189 17.3917 9.66302 17.2873 9.66302H12.9423C12.8379 9.66302 12.7586 9.69189 12.7043 9.74964C12.6522 9.80517 12.6261 9.88958 12.6261 10.0029V14.1042C12.6261 14.2197 12.6522 14.3053 12.7043 14.3608C12.7586 14.4163 12.8379 14.4441 12.9423 14.4441H13.5151V15.1071H12.9047ZM17.8946 11.4055V10.7425H19.0247C19.1812 10.7425 19.3158 10.7658 19.4285 10.8125C19.5433 10.8591 19.6487 10.9402 19.7447 11.0557L20.7746 12.2884C20.8623 12.3951 20.9217 12.4983 20.953 12.5983C20.9843 12.696 21 12.8293 21 12.9981V14.1409C21 14.4518 20.9228 14.6906 20.7683 14.8572C20.6139 15.0238 20.3896 15.1071 20.0953 15.1071H19.6132V14.4441H20.0609C20.1652 14.4441 20.2435 14.4163 20.2957 14.3608C20.3499 14.3053 20.377 14.2197 20.377 14.1042V13.0314C20.377 12.9648 20.3666 12.9004 20.3457 12.8382C20.327 12.776 20.2957 12.7193 20.2518 12.6683L19.3409 11.5754C19.2824 11.5088 19.224 11.4644 19.1656 11.4422C19.1071 11.4177 19.0403 11.4055 18.9652 11.4055H17.8946ZM18.793 13.0314C18.7117 13.0314 18.6459 13.0059 18.5958 12.9548C18.5457 12.9015 18.5207 12.8293 18.5207 12.7382V11.732H18.8776C18.9256 11.732 18.9683 11.7431 19.0059 11.7653C19.0456 11.7853 19.0831 11.8153 19.1186 11.8553L19.9607 12.8648C19.9816 12.8893 19.9983 12.9137 20.0108 12.9381C20.0233 12.9626 20.0296 12.9937 20.0296 13.0314H18.793ZM14.3103 16C14.1078 16 13.9231 15.9467 13.7562 15.8401C13.5913 15.7357 13.4588 15.5946 13.3586 15.4169C13.2605 15.2415 13.2115 15.0471 13.2115 14.8339C13.2115 14.6184 13.2605 14.423 13.3586 14.2475C13.4588 14.072 13.5913 13.9321 13.7562 13.8277C13.9231 13.7211 14.1078 13.6678 14.3103 13.6678C14.5106 13.6678 14.6932 13.7211 14.8581 13.8277C15.025 13.9321 15.1576 14.072 15.2557 14.2475C15.3537 14.423 15.4028 14.6184 15.4028 14.8339C15.4028 15.0471 15.3537 15.2415 15.2557 15.4169C15.1576 15.5946 15.025 15.7357 14.8581 15.8401C14.6932 15.9467 14.5106 16 14.3103 16ZM14.3103 15.4469C14.4146 15.4469 14.5106 15.4192 14.5983 15.3636C14.6859 15.3081 14.7548 15.2337 14.8049 15.1404C14.857 15.0471 14.8831 14.9449 14.8831 14.8339C14.8831 14.7206 14.857 14.6173 14.8049 14.524C14.7548 14.4307 14.6859 14.3563 14.5983 14.3008C14.5106 14.2453 14.4146 14.2175 14.3103 14.2175C14.2038 14.2175 14.1068 14.2453 14.0191 14.3008C13.9315 14.3563 13.8616 14.4307 13.8094 14.524C13.7593 14.6173 13.7343 14.7206 13.7343 14.8339C13.7343 14.9449 13.7593 15.0471 13.8094 15.1404C13.8616 15.2337 13.9315 15.3081 14.0191 15.3636C14.1068 15.4192 14.2038 15.4469 14.3103 15.4469ZM18.6991 16C18.4988 16 18.3151 15.9467 18.1482 15.8401C17.9833 15.7357 17.8518 15.5946 17.7537 15.4169C17.6557 15.2415 17.6066 15.0471 17.6066 14.8339C17.6066 14.6184 17.6557 14.423 17.7537 14.2475C17.8518 14.072 17.9833 13.9321 18.1482 13.8277C18.3151 13.7211 18.4988 13.6678 18.6991 13.6678C18.9016 13.6678 19.0852 13.7211 19.2501 13.8277C19.415 13.9321 19.5464 14.072 19.6445 14.2475C19.7447 14.423 19.7948 14.6184 19.7948 14.8339C19.7948 15.0471 19.7447 15.2415 19.6445 15.4169C19.5464 15.5946 19.415 15.7357 19.2501 15.8401C19.0852 15.9467 18.9016 16 18.6991 16ZM18.6991 15.4469C18.8056 15.4469 18.9016 15.4192 18.9871 15.3636C19.0748 15.3081 19.1437 15.2337 19.1937 15.1404C19.2459 15.0471 19.272 14.9449 19.272 14.8339C19.272 14.7206 19.2459 14.6173 19.1937 14.524C19.1437 14.4307 19.0748 14.3563 18.9871 14.3008C18.9016 14.2453 18.8056 14.2175 18.6991 14.2175C18.5948 14.2175 18.4988 14.2453 18.4111 14.3008C18.3235 14.3563 18.2536 14.4307 18.2014 14.524C18.1492 14.6173 18.1231 14.7206 18.1231 14.8339C18.1231 14.9449 18.1492 15.0471 18.2014 15.1404C18.2536 15.2337 18.3235 15.3081 18.4111 15.3636C18.4988 15.4192 18.5948 15.4469 18.6991 15.4469ZM15.143 15.1071V14.4441H17.8664V15.1071H15.143Z"/>
</mask>
<path d="M12.9047 15.1071C12.6125 15.1071 12.3882 15.0238 12.2317 14.8572C12.0772 14.6906 12 14.4518 12 14.1409V9.96287C12 9.65191 12.0772 9.41425 12.2317 9.24988C12.3882 9.08329 12.6125 9 12.9047 9H17.3249C17.6191 9 17.8435 9.08329 17.9979 9.24988C18.1523 9.41425 18.2296 9.65191 18.2296 9.96287V14.2941L17.6066 14.6073V10.0029C17.6066 9.88958 17.5795 9.80517 17.5252 9.74964C17.471 9.69189 17.3917 9.66302 17.2873 9.66302H12.9423C12.8379 9.66302 12.7586 9.69189 12.7043 9.74964C12.6522 9.80517 12.6261 9.88958 12.6261 10.0029V14.1042C12.6261 14.2197 12.6522 14.3053 12.7043 14.3608C12.7586 14.4163 12.8379 14.4441 12.9423 14.4441H13.5151V15.1071H12.9047ZM17.8946 11.4055V10.7425H19.0247C19.1812 10.7425 19.3158 10.7658 19.4285 10.8125C19.5433 10.8591 19.6487 10.9402 19.7447 11.0557L20.7746 12.2884C20.8623 12.3951 20.9217 12.4983 20.953 12.5983C20.9843 12.696 21 12.8293 21 12.9981V14.1409C21 14.4518 20.9228 14.6906 20.7683 14.8572C20.6139 15.0238 20.3896 15.1071 20.0953 15.1071H19.6132V14.4441H20.0609C20.1652 14.4441 20.2435 14.4163 20.2957 14.3608C20.3499 14.3053 20.377 14.2197 20.377 14.1042V13.0314C20.377 12.9648 20.3666 12.9004 20.3457 12.8382C20.327 12.776 20.2957 12.7193 20.2518 12.6683L19.3409 11.5754C19.2824 11.5088 19.224 11.4644 19.1656 11.4422C19.1071 11.4177 19.0403 11.4055 18.9652 11.4055H17.8946ZM18.793 13.0314C18.7117 13.0314 18.6459 13.0059 18.5958 12.9548C18.5457 12.9015 18.5207 12.8293 18.5207 12.7382V11.732H18.8776C18.9256 11.732 18.9683 11.7431 19.0059 11.7653C19.0456 11.7853 19.0831 11.8153 19.1186 11.8553L19.9607 12.8648C19.9816 12.8893 19.9983 12.9137 20.0108 12.9381C20.0233 12.9626 20.0296 12.9937 20.0296 13.0314H18.793ZM14.3103 16C14.1078 16 13.9231 15.9467 13.7562 15.8401C13.5913 15.7357 13.4588 15.5946 13.3586 15.4169C13.2605 15.2415 13.2115 15.0471 13.2115 14.8339C13.2115 14.6184 13.2605 14.423 13.3586 14.2475C13.4588 14.072 13.5913 13.9321 13.7562 13.8277C13.9231 13.7211 14.1078 13.6678 14.3103 13.6678C14.5106 13.6678 14.6932 13.7211 14.8581 13.8277C15.025 13.9321 15.1576 14.072 15.2557 14.2475C15.3537 14.423 15.4028 14.6184 15.4028 14.8339C15.4028 15.0471 15.3537 15.2415 15.2557 15.4169C15.1576 15.5946 15.025 15.7357 14.8581 15.8401C14.6932 15.9467 14.5106 16 14.3103 16ZM14.3103 15.4469C14.4146 15.4469 14.5106 15.4192 14.5983 15.3636C14.6859 15.3081 14.7548 15.2337 14.8049 15.1404C14.857 15.0471 14.8831 14.9449 14.8831 14.8339C14.8831 14.7206 14.857 14.6173 14.8049 14.524C14.7548 14.4307 14.6859 14.3563 14.5983 14.3008C14.5106 14.2453 14.4146 14.2175 14.3103 14.2175C14.2038 14.2175 14.1068 14.2453 14.0191 14.3008C13.9315 14.3563 13.8616 14.4307 13.8094 14.524C13.7593 14.6173 13.7343 14.7206 13.7343 14.8339C13.7343 14.9449 13.7593 15.0471 13.8094 15.1404C13.8616 15.2337 13.9315 15.3081 14.0191 15.3636C14.1068 15.4192 14.2038 15.4469 14.3103 15.4469ZM18.6991 16C18.4988 16 18.3151 15.9467 18.1482 15.8401C17.9833 15.7357 17.8518 15.5946 17.7537 15.4169C17.6557 15.2415 17.6066 15.0471 17.6066 14.8339C17.6066 14.6184 17.6557 14.423 17.7537 14.2475C17.8518 14.072 17.9833 13.9321 18.1482 13.8277C18.3151 13.7211 18.4988 13.6678 18.6991 13.6678C18.9016 13.6678 19.0852 13.7211 19.2501 13.8277C19.415 13.9321 19.5464 14.072 19.6445 14.2475C19.7447 14.423 19.7948 14.6184 19.7948 14.8339C19.7948 15.0471 19.7447 15.2415 19.6445 15.4169C19.5464 15.5946 19.415 15.7357 19.2501 15.8401C19.0852 15.9467 18.9016 16 18.6991 16ZM18.6991 15.4469C18.8056 15.4469 18.9016 15.4192 18.9871 15.3636C19.0748 15.3081 19.1437 15.2337 19.1937 15.1404C19.2459 15.0471 19.272 14.9449 19.272 14.8339C19.272 14.7206 19.2459 14.6173 19.1937 14.524C19.1437 14.4307 19.0748 14.3563 18.9871 14.3008C18.9016 14.2453 18.8056 14.2175 18.6991 14.2175C18.5948 14.2175 18.4988 14.2453 18.4111 14.3008C18.3235 14.3563 18.2536 14.4307 18.2014 14.524C18.1492 14.6173 18.1231 14.7206 18.1231 14.8339C18.1231 14.9449 18.1492 15.0471 18.2014 15.1404C18.2536 15.2337 18.3235 15.3081 18.4111 15.3636C18.4988 15.4192 18.5948 15.4469 18.6991 15.4469ZM15.143 15.1071V14.4441H17.8664V15.1071H15.143Z" fill="white"/>
<path d="M12.9047 15.1071C12.6125 15.1071 12.3882 15.0238 12.2317 14.8572C12.0772 14.6906 12 14.4518 12 14.1409V9.96287C12 9.65191 12.0772 9.41425 12.2317 9.24988C12.3882 9.08329 12.6125 9 12.9047 9H17.3249C17.6191 9 17.8435 9.08329 17.9979 9.24988C18.1523 9.41425 18.2296 9.65191 18.2296 9.96287V14.2941L17.6066 14.6073V10.0029C17.6066 9.88958 17.5795 9.80517 17.5252 9.74964C17.471 9.69189 17.3917 9.66302 17.2873 9.66302H12.9423C12.8379 9.66302 12.7586 9.69189 12.7043 9.74964C12.6522 9.80517 12.6261 9.88958 12.6261 10.0029V14.1042C12.6261 14.2197 12.6522 14.3053 12.7043 14.3608C12.7586 14.4163 12.8379 14.4441 12.9423 14.4441H13.5151V15.1071H12.9047ZM17.8946 11.4055V10.7425H19.0247C19.1812 10.7425 19.3158 10.7658 19.4285 10.8125C19.5433 10.8591 19.6487 10.9402 19.7447 11.0557L20.7746 12.2884C20.8623 12.3951 20.9217 12.4983 20.953 12.5983C20.9843 12.696 21 12.8293 21 12.9981V14.1409C21 14.4518 20.9228 14.6906 20.7683 14.8572C20.6139 15.0238 20.3896 15.1071 20.0953 15.1071H19.6132V14.4441H20.0609C20.1652 14.4441 20.2435 14.4163 20.2957 14.3608C20.3499 14.3053 20.377 14.2197 20.377 14.1042V13.0314C20.377 12.9648 20.3666 12.9004 20.3457 12.8382C20.327 12.776 20.2957 12.7193 20.2518 12.6683L19.3409 11.5754C19.2824 11.5088 19.224 11.4644 19.1656 11.4422C19.1071 11.4177 19.0403 11.4055 18.9652 11.4055H17.8946ZM18.793 13.0314C18.7117 13.0314 18.6459 13.0059 18.5958 12.9548C18.5457 12.9015 18.5207 12.8293 18.5207 12.7382V11.732H18.8776C18.9256 11.732 18.9683 11.7431 19.0059 11.7653C19.0456 11.7853 19.0831 11.8153 19.1186 11.8553L19.9607 12.8648C19.9816 12.8893 19.9983 12.9137 20.0108 12.9381C20.0233 12.9626 20.0296 12.9937 20.0296 13.0314H18.793ZM14.3103 16C14.1078 16 13.9231 15.9467 13.7562 15.8401C13.5913 15.7357 13.4588 15.5946 13.3586 15.4169C13.2605 15.2415 13.2115 15.0471 13.2115 14.8339C13.2115 14.6184 13.2605 14.423 13.3586 14.2475C13.4588 14.072 13.5913 13.9321 13.7562 13.8277C13.9231 13.7211 14.1078 13.6678 14.3103 13.6678C14.5106 13.6678 14.6932 13.7211 14.8581 13.8277C15.025 13.9321 15.1576 14.072 15.2557 14.2475C15.3537 14.423 15.4028 14.6184 15.4028 14.8339C15.4028 15.0471 15.3537 15.2415 15.2557 15.4169C15.1576 15.5946 15.025 15.7357 14.8581 15.8401C14.6932 15.9467 14.5106 16 14.3103 16ZM14.3103 15.4469C14.4146 15.4469 14.5106 15.4192 14.5983 15.3636C14.6859 15.3081 14.7548 15.2337 14.8049 15.1404C14.857 15.0471 14.8831 14.9449 14.8831 14.8339C14.8831 14.7206 14.857 14.6173 14.8049 14.524C14.7548 14.4307 14.6859 14.3563 14.5983 14.3008C14.5106 14.2453 14.4146 14.2175 14.3103 14.2175C14.2038 14.2175 14.1068 14.2453 14.0191 14.3008C13.9315 14.3563 13.8616 14.4307 13.8094 14.524C13.7593 14.6173 13.7343 14.7206 13.7343 14.8339C13.7343 14.9449 13.7593 15.0471 13.8094 15.1404C13.8616 15.2337 13.9315 15.3081 14.0191 15.3636C14.1068 15.4192 14.2038 15.4469 14.3103 15.4469ZM18.6991 16C18.4988 16 18.3151 15.9467 18.1482 15.8401C17.9833 15.7357 17.8518 15.5946 17.7537 15.4169C17.6557 15.2415 17.6066 15.0471 17.6066 14.8339C17.6066 14.6184 17.6557 14.423 17.7537 14.2475C17.8518 14.072 17.9833 13.9321 18.1482 13.8277C18.3151 13.7211 18.4988 13.6678 18.6991 13.6678C18.9016 13.6678 19.0852 13.7211 19.2501 13.8277C19.415 13.9321 19.5464 14.072 19.6445 14.2475C19.7447 14.423 19.7948 14.6184 19.7948 14.8339C19.7948 15.0471 19.7447 15.2415 19.6445 15.4169C19.5464 15.5946 19.415 15.7357 19.2501 15.8401C19.0852 15.9467 18.9016 16 18.6991 16ZM18.6991 15.4469C18.8056 15.4469 18.9016 15.4192 18.9871 15.3636C19.0748 15.3081 19.1437 15.2337 19.1937 15.1404C19.2459 15.0471 19.272 14.9449 19.272 14.8339C19.272 14.7206 19.2459 14.6173 19.1937 14.524C19.1437 14.4307 19.0748 14.3563 18.9871 14.3008C18.9016 14.2453 18.8056 14.2175 18.6991 14.2175C18.5948 14.2175 18.4988 14.2453 18.4111 14.3008C18.3235 14.3563 18.2536 14.4307 18.2014 14.524C18.1492 14.6173 18.1231 14.7206 18.1231 14.8339C18.1231 14.9449 18.1492 15.0471 18.2014 15.1404C18.2536 15.2337 18.3235 15.3081 18.4111 15.3636C18.4988 15.4192 18.5948 15.4469 18.6991 15.4469ZM15.143 15.1071V14.4441H17.8664V15.1071H15.143Z" stroke="white" stroke-width="0.2" mask="url(#path-3-outside-1_5325_6269)"/>
</svg>
