<svg width="33" height="33" viewBox="0 0 33 33" fill="none" xmlns="http://www.w3.org/2000/svg">
<path d="M16.4997 33L15.1029 31.1551C14.0748 29.8109 5.07812 17.8004 5.07812 11.8171C5.07812 4.63908 9.55891 0 16.4997 0C23.4406 0 27.9213 4.63908 27.9213 11.8171C27.9213 17.7916 18.9247 29.8021 17.9053 31.1551L16.4997 33Z" fill="#C9B171"/>
<path d="M16.4991 30.4758L15.0977 28.6247C14.2144 27.4697 6.46094 17.1778 6.46094 11.9097C6.46094 5.60566 10.4013 1.53223 16.4996 1.53223C22.5979 1.53223 26.5383 5.60566 26.5383 11.9097C26.5383 16.9133 19.3505 26.7107 17.9094 28.6242L16.4991 30.4758ZM16.4996 2.04785C10.7143 2.04785 6.97656 5.91916 6.97656 11.9097C6.97656 17.0959 15.16 27.8569 15.5081 28.3128L16.5002 29.623L17.4984 28.3133C18.921 26.424 26.0227 16.7494 26.0227 11.9102C26.0227 5.91916 22.2844 2.04785 16.4996 2.04785Z" fill="white"/>
<path d="M21.3403 9V8.95H21.2903H11.7097H11.6597V9V9.17744C11.6597 9.44327 11.4433 9.65971 11.1774 9.65971H11H10.95V9.70971V15.3871V15.4371H11H11.1774C11.4433 15.4371 11.6597 15.6535 11.6597 15.9194V16.0968V16.1468H11.7097H21.2903H21.3403V16.0968V15.9194C21.3403 15.6535 21.5567 15.4371 21.8226 15.4371H22H22.05V15.3871V9.70971V9.65971H22H21.8225C21.5567 9.65971 21.3403 9.4433 21.3403 9.17744V9ZM11.4048 15.0102V14.9048H11.7097H11.7597V14.8548V14.5V14.45H11.7097H11.4048V14.1951H11.7097H11.7597V14.1451V13.7903V13.7403H11.7097H11.4048V13.4855H11.7097H11.7597V13.4355V13.0806V13.0306H11.7097H11.4048V12.7758H11.7097H11.7597V12.7258V12.371V12.321H11.7097H11.4048V12.0661H11.7097H11.7597V12.0161V11.6613V11.6113H11.7097H11.4048V11.3565H11.7097H11.7597V11.3065V10.9516V10.9016H11.7097H11.4048V10.6468H11.7097H11.7597V10.5968V10.2419V10.1919H11.7097H11.4048V10.0865C11.7392 10.0029 12.0029 9.73922 12.0865 9.40484H20.9132C20.9968 9.73922 21.2606 10.0029 21.5949 10.0865V10.1919H21.2901H21.2401V10.2419V10.5968V10.6468H21.2901H21.5949V10.9016H21.2901H21.2401V10.9516V11.3065V11.3565H21.2901H21.5949V11.6113H21.2901H21.2401V11.6613V12.0161V12.0661H21.2901H21.5949V12.321H21.2901H21.2401V12.371V12.7258V12.7758H21.2901H21.5949V13.0306H21.2901H21.2401V13.0806V13.4355V13.4855H21.2901H21.5949V13.7403H21.2901H21.2401V13.7903V14.1451V14.1951H21.2901H21.5949V14.45H21.2901H21.2401V14.5V14.8548V14.9048H21.2901H21.5949V15.0102C21.2607 15.0938 20.997 15.3576 20.9134 15.6919H12.0865C12.0029 15.3575 11.7392 15.0938 11.4048 15.0102Z" fill="#FCE404" stroke="#FCE404" stroke-width="0.1"/>
<path d="M20.226 9.83672H12.7745C12.4534 9.83672 12.1922 10.0979 12.1922 10.419V14.677C12.1922 14.9981 12.4534 15.2593 12.7745 15.2593H20.226C20.5471 15.2593 20.8083 14.9981 20.8083 14.677V10.419C20.8083 10.0979 20.5471 9.83672 20.226 9.83672ZM13.2568 14.8044H12.7745C12.7042 14.8044 12.6471 14.7472 12.6471 14.677V10.419C12.6471 10.3488 12.7042 10.2916 12.7745 10.2916H13.2568V14.8044ZM19.289 14.8044H13.7116V10.2916H19.289V14.8044ZM20.3535 14.677C20.3535 14.7472 20.2963 14.8045 20.226 14.8045H19.7437V10.2916H20.226C20.2963 10.2916 20.3535 10.3488 20.3535 10.419V14.677Z" fill="#FCE404" stroke="#FCE404" stroke-width="0.1"/>
<path d="M14.1934 11.4344H14.1434V11.4844V11.8392V11.8892H14.1934H18.8062H18.8562V11.8392V11.4844V11.4344H18.8062H14.1934Z" fill="#FCE404" stroke="#FCE404" stroke-width="0.1"/>
<path d="M14.1934 12.3211H14.1434V12.3711V12.7259V12.7759H14.1934H18.8062H18.8562V12.7259V12.3711V12.3211H18.8062H14.1934Z" fill="#FCE404" stroke="#FCE404" stroke-width="0.1"/>
<path d="M18.4512 13.2088H18.4012V13.2588V13.6136V13.6636H18.4512H18.806H18.856V13.6136V13.2588V13.2088H18.806H18.4512Z" fill="#FCE404" stroke="#FCE404" stroke-width="0.1"/>
<path d="M14.1934 13.2088H14.1434V13.2588V13.6136V13.6636H14.1934H18.0966H18.1466V13.6136V13.2588V13.2088H18.0966H14.1934Z" fill="#FCE404" stroke="#FCE404" stroke-width="0.1"/>
</svg>
